<svg width="512" height="512" viewBox="0 0 512 512" fill="none" xmlns="http://www.w3.org/2000/svg">
<g clip-path="url(#clip0_9_81)">
<path d="M256 0C205.368 0 155.873 15.0141 113.774 43.1438C71.6751 71.2734 38.863 111.255 19.487 158.033C0.110921 204.811 -4.95873 256.284 4.91908 305.943C14.7969 355.602 39.1785 401.217 74.9808 437.019C110.783 472.822 156.398 497.203 206.057 507.081C255.716 516.959 307.189 511.889 353.967 492.513C400.745 473.137 440.727 440.325 468.856 398.226C496.986 356.127 512 306.632 512 256C511.927 188.127 484.932 123.055 436.938 75.0618C388.945 27.0683 323.873 0.0734097 256 0ZM256 469.333C213.807 469.333 172.561 456.822 137.478 433.38C102.396 409.939 75.0525 376.621 58.9058 337.639C42.7591 298.658 38.5344 255.763 46.7659 214.381C54.9974 172.998 75.3155 134.986 105.151 105.151C134.986 75.3154 172.998 54.9973 214.381 46.7658C255.763 38.5343 298.658 42.759 337.639 58.9057C376.621 75.0524 409.939 102.396 433.38 137.478C456.822 172.561 469.333 213.807 469.333 256C469.271 312.56 446.775 366.787 406.781 406.781C366.787 446.775 312.561 469.271 256 469.333Z" fill="#F5F5F5"/>
<path d="M256 149.333C234.903 149.333 214.28 155.589 196.739 167.31C179.198 179.031 165.526 195.69 157.453 215.18C149.379 234.671 147.267 256.118 151.383 276.81C155.499 297.501 165.658 316.507 180.575 331.425C195.493 346.342 214.499 356.501 235.19 360.617C255.882 364.733 277.329 362.62 296.82 354.547C316.31 346.474 332.969 332.802 344.69 315.261C356.411 297.72 362.667 277.097 362.667 256C362.633 227.721 351.384 200.609 331.387 180.613C311.391 160.616 284.279 149.367 256 149.333ZM256 320C243.342 320 230.968 316.246 220.443 309.214C209.919 302.182 201.716 292.186 196.872 280.492C192.028 268.797 190.76 255.929 193.23 243.514C195.699 231.099 201.795 219.696 210.745 210.745C219.696 201.795 231.099 195.699 243.514 193.23C255.929 190.76 268.797 192.028 280.492 196.872C292.186 201.716 302.182 209.919 309.214 220.443C316.246 230.968 320 243.342 320 256C320 272.974 313.257 289.252 301.255 301.255C289.252 313.257 272.974 320 256 320Z" fill="#F5F5F5"/>
<path d="M256 277.333C267.782 277.333 277.333 267.782 277.333 256C277.333 244.218 267.782 234.667 256 234.667C244.218 234.667 234.667 244.218 234.667 256C234.667 267.782 244.218 277.333 256 277.333Z" fill="#F5F5F5"/>
</g>
<defs>
<clipPath id="clip0_9_81">
<rect width="512" height="512" fill="white"/>
</clipPath>
</defs>
</svg>
