<svg width="512" height="512" viewBox="0 0 512 512" fill="none" xmlns="http://www.w3.org/2000/svg">
<path d="M256 170.667C239.123 170.667 222.624 175.671 208.591 185.048C194.558 194.425 183.621 207.752 177.162 223.344C170.703 238.937 169.014 256.095 172.306 272.648C175.599 289.201 183.726 304.406 195.66 316.34C207.594 328.274 222.799 336.401 239.352 339.694C255.905 342.986 273.063 341.296 288.656 334.838C304.248 328.379 317.575 317.442 326.952 303.409C336.329 289.376 341.333 272.877 341.333 256C341.333 233.368 332.343 211.663 316.34 195.66C300.337 179.657 278.632 170.667 256 170.667ZM256 298.667C247.561 298.667 239.312 296.164 232.296 291.476C225.279 286.788 219.81 280.124 216.581 272.328C213.352 264.532 212.507 255.953 214.153 247.676C215.799 239.4 219.863 231.797 225.83 225.83C231.797 219.863 239.4 215.8 247.676 214.153C255.953 212.507 264.531 213.352 272.328 216.581C280.124 219.811 286.788 225.279 291.476 232.296C296.164 239.312 298.667 247.561 298.667 256C298.667 267.316 294.171 278.168 286.17 286.17C278.168 294.172 267.316 298.667 256 298.667Z" fill="#F5F5F5"/>
<path d="M454.272 296.533L444.8 291.072C449.064 267.871 449.064 244.087 444.8 220.885L454.272 215.424C461.556 211.222 467.941 205.626 473.062 198.956C478.184 192.286 481.941 184.673 484.12 176.551C486.299 168.429 486.857 159.957 485.762 151.619C484.667 143.282 481.941 135.241 477.739 127.957C473.536 120.673 467.94 114.288 461.271 109.167C454.601 104.046 446.987 100.288 438.865 98.1091C430.743 95.93 422.272 95.372 413.934 96.467C405.596 97.5619 397.556 100.288 390.272 104.491L380.779 109.973C362.849 94.6543 342.243 82.7786 320 74.944V64C320 47.0261 313.257 30.7475 301.255 18.7452C289.252 6.74284 272.974 0 256 0C239.026 0 222.747 6.74284 210.745 18.7452C198.743 30.7475 192 47.0261 192 64V74.944C169.758 82.8068 149.159 94.7115 131.243 110.059L121.707 104.533C106.996 96.0464 89.5163 93.7509 73.1132 98.1517C56.71 102.553 42.7269 113.289 34.2399 128C25.753 142.711 23.4575 160.19 27.8583 176.593C32.2592 192.997 42.9959 206.98 57.7066 215.467L67.1786 220.928C62.9143 244.129 62.9143 267.913 67.1786 291.115L57.7066 296.576C42.9959 305.063 32.2592 319.046 27.8583 335.449C23.4575 351.852 25.753 369.332 34.2399 384.043C42.7269 398.753 56.71 409.49 73.1132 413.891C89.5163 418.292 106.996 415.996 121.707 407.509L131.2 402.027C149.136 417.348 169.749 429.224 192 437.056V448C192 464.974 198.743 481.253 210.745 493.255C222.747 505.257 239.026 512 256 512C272.974 512 289.252 505.257 301.255 493.255C313.257 481.253 320 464.974 320 448V437.056C342.242 429.193 362.841 417.289 380.757 401.941L390.293 407.445C405.004 415.932 422.484 418.228 438.887 413.827C455.29 409.426 469.273 398.689 477.76 383.979C486.247 369.268 488.542 351.788 484.142 335.385C479.741 318.982 469.004 304.999 454.293 296.512L454.272 296.533ZM399.915 215.979C407.139 242.156 407.139 269.801 399.915 295.979C398.653 300.535 398.941 305.381 400.733 309.756C402.524 314.131 405.718 317.787 409.813 320.149L432.939 333.504C437.841 336.333 441.419 340.994 442.886 346.461C444.352 351.928 443.586 357.753 440.757 362.656C437.928 367.559 433.268 371.137 427.801 372.603C422.334 374.069 416.508 373.304 411.605 370.475L388.437 357.077C384.339 354.704 379.567 353.761 374.875 354.399C370.182 355.036 365.834 357.217 362.517 360.597C343.529 379.982 319.607 393.813 293.333 400.597C288.747 401.776 284.684 404.448 281.783 408.19C278.883 411.933 277.31 416.534 277.312 421.269V448C277.312 453.658 275.064 459.084 271.064 463.085C267.063 467.086 261.637 469.333 255.979 469.333C250.321 469.333 244.894 467.086 240.894 463.085C236.893 459.084 234.645 453.658 234.645 448V421.291C234.648 416.556 233.075 411.954 230.174 408.212C227.273 404.469 223.21 401.798 218.624 400.619C192.349 393.807 168.434 379.946 149.461 360.533C146.144 357.153 141.797 354.972 137.104 354.335C132.411 353.697 127.64 354.64 123.541 357.013L100.416 370.389C97.9888 371.812 95.3043 372.741 92.5167 373.122C89.7292 373.503 86.8939 373.329 84.1739 372.61C81.4539 371.891 78.903 370.641 76.6681 368.932C74.4332 367.223 72.5584 365.089 71.1516 362.652C69.7449 360.216 68.834 357.525 68.4713 354.735C68.1087 351.945 68.3015 349.111 69.0387 346.396C69.7758 343.681 71.0427 341.138 72.7665 338.915C74.4903 336.691 76.6368 334.831 79.0826 333.44L102.208 320.085C106.303 317.723 109.497 314.067 111.289 309.692C113.08 305.317 113.368 300.471 112.107 295.915C104.882 269.737 104.882 242.092 112.107 215.915C113.345 211.368 113.044 206.539 111.249 202.182C109.455 197.825 106.268 194.185 102.187 191.829L79.0613 178.475C74.1587 175.646 70.5807 170.985 69.1144 165.518C67.6481 160.051 68.4136 154.225 71.2426 149.323C74.0716 144.42 78.7322 140.842 84.1993 139.376C89.6664 137.909 95.492 138.675 100.395 141.504L123.563 154.901C127.65 157.28 132.411 158.234 137.099 157.612C141.787 156.99 146.136 154.829 149.461 151.467C168.45 132.082 192.372 118.251 218.645 111.467C223.245 110.284 227.319 107.6 230.221 103.84C233.124 100.08 234.688 95.459 234.667 90.7093V64C234.667 58.342 236.914 52.9158 240.915 48.9151C244.916 44.9143 250.342 42.6667 256 42.6667C261.658 42.6667 267.084 44.9143 271.085 48.9151C275.086 52.9158 277.333 58.342 277.333 64V90.7093C277.331 95.4444 278.904 100.046 281.805 103.788C284.705 107.531 288.769 110.202 293.355 111.381C319.638 118.19 343.56 132.051 362.539 151.467C365.855 154.847 370.203 157.028 374.896 157.665C379.589 158.303 384.36 157.36 388.459 154.987L411.584 141.611C414.011 140.188 416.696 139.259 419.483 138.878C422.271 138.497 425.106 138.671 427.826 139.39C430.546 140.109 433.097 141.359 435.332 143.068C437.567 144.777 439.442 146.911 440.848 149.348C442.255 151.784 443.166 154.475 443.529 157.265C443.891 160.055 443.698 162.889 442.961 165.604C442.224 168.319 440.957 170.862 439.233 173.085C437.51 175.309 435.363 177.169 432.917 178.56L409.792 191.915C405.718 194.276 402.54 197.92 400.754 202.276C398.967 206.633 398.672 211.458 399.915 216V215.979Z" fill="#F5F5F5"/>
</svg>
