<svg width="512" height="512" viewBox="0 0 512 512" fill="none" xmlns="http://www.w3.org/2000/svg">
<g clip-path="url(#clip0_15_5)">
<path d="M499.648 353.771L429.44 283.563C427.483 281.479 425.128 279.81 422.513 278.654C419.898 277.498 417.078 276.88 414.22 276.836C411.362 276.791 408.524 277.322 405.875 278.396C403.225 279.469 400.819 281.065 398.798 283.087C396.778 285.109 395.184 287.516 394.112 290.166C393.04 292.816 392.512 295.655 392.558 298.513C392.605 301.371 393.225 304.191 394.382 306.804C395.54 309.418 397.211 311.773 399.296 313.728L448.149 362.667C421.592 362.727 395.291 357.473 370.795 347.215C346.299 336.956 324.104 321.9 305.515 302.933C303.451 301.032 301.025 299.565 298.383 298.62C295.741 297.674 292.936 297.269 290.135 297.428C287.333 297.587 284.592 298.307 282.074 299.546C279.556 300.785 277.313 302.517 275.477 304.64L275.2 305.067C271.613 309.239 269.777 314.636 270.076 320.129C270.374 325.623 272.783 330.79 276.8 334.549C299.196 357.199 325.902 375.132 355.343 387.289C384.784 399.446 416.362 405.582 448.213 405.333L399.296 454.251C397.067 456.168 395.258 458.525 393.984 461.175C392.709 463.824 391.995 466.708 391.888 469.647C391.781 472.585 392.282 475.513 393.361 478.249C394.439 480.984 396.071 483.467 398.155 485.541C400.238 487.616 402.728 489.237 405.468 490.304C408.207 491.371 411.138 491.86 414.076 491.74C417.014 491.62 419.895 490.895 422.539 489.609C425.183 488.322 427.532 486.504 429.44 484.267L499.648 414.059C507.634 406.059 512.119 395.218 512.119 383.915C512.119 372.611 507.634 361.77 499.648 353.771Z" fill="#F5F5F5"/>
<path d="M448.149 149.333L399.296 198.187C398.88 198.748 398.496 199.332 398.144 199.936C394.701 204.133 393.003 209.493 393.401 214.907C393.799 220.321 396.262 225.375 400.281 229.024C404.3 232.674 409.568 234.639 414.995 234.514C420.422 234.388 425.593 232.183 429.44 228.352L465.835 192L499.669 158.187C505.39 152.421 509.346 145.143 511.073 137.207C512.8 129.272 512.226 121.008 509.419 113.387C507.346 107.553 504.01 102.25 499.648 97.856L429.44 27.7333C427.492 25.6172 425.137 23.9168 422.515 22.7342C419.894 21.5516 417.06 20.9113 414.185 20.8517C411.31 20.7922 408.452 21.3146 405.784 22.3876C403.116 23.4606 400.692 25.062 398.658 27.0956C396.625 29.1291 395.023 31.5529 393.95 34.2212C392.877 36.8894 392.355 39.7471 392.414 42.6224C392.474 45.4977 393.114 48.3313 394.297 50.9528C395.479 53.5743 397.18 55.9297 399.296 57.8773L448.213 106.773C342.976 107.029 285.291 163.819 232.981 223.552C184.939 169.323 128 115.2 31.7226 107.648L21.4613 106.667C15.8033 106.667 10.3771 108.914 6.37632 112.915C2.37554 116.916 0.12793 122.342 0.12793 128C0.237159 133.624 2.51984 138.987 6.49718 142.964C10.4745 146.941 15.8375 149.224 21.4613 149.333C22.9973 149.333 27.5839 150.037 27.5839 150.037C110.699 156.331 158.4 203.136 204.8 256C158.677 308.608 111.296 356.267 28.8639 361.813L20.3306 362.261C14.7151 362.612 9.46891 365.179 5.74619 369.398C2.02347 373.617 0.129137 379.142 0.47993 384.757C0.830723 390.373 3.3979 395.619 7.61672 399.342C11.8355 403.064 17.3604 404.959 22.9759 404.608C26.3039 404.459 31.7226 404.331 34.3893 404.117C141.483 395.861 199.573 327.317 251.371 267.392C303.68 206.933 353.088 149.717 448.149 149.333Z" fill="#F5F5F5"/>
</g>
<defs>
<clipPath id="clip0_15_5">
<rect width="512" height="512" fill="white"/>
</clipPath>
</defs>
</svg>
