<svg width="1024" height="1024" viewBox="0 0 1024 1024" fill="none" xmlns="http://www.w3.org/2000/svg">
<circle cx="591.41" cy="428.067" r="24.0672" transform="rotate(-90 591.41 428.067)" fill="#F5F5F5"/>
<circle cx="671.634" cy="428.067" r="24.0672" transform="rotate(-90 671.634 428.067)" fill="#F5F5F5"/>
<circle cx="751.858" cy="428.067" r="24.0672" transform="rotate(-90 751.858 428.067)" fill="#F5F5F5"/>
<circle cx="430.963" cy="511.5" r="24.0672" transform="rotate(-90 430.963 511.5)" fill="#F5F5F5"/>
<circle cx="511.187" cy="511.5" r="24.0672" transform="rotate(-90 511.187 511.5)" fill="#F5F5F5"/>
<circle cx="591.41" cy="511.5" r="24.0672" transform="rotate(-90 591.41 511.5)" fill="#F5F5F5"/>
<circle cx="270.515" cy="428.067" r="24.0672" transform="rotate(-90 270.515 428.067)" fill="#F5F5F5"/>
<circle cx="350.739" cy="428.067" r="24.0672" transform="rotate(-90 350.739 428.067)" fill="#F5F5F5"/>
<circle cx="430.963" cy="428.067" r="24.0672" transform="rotate(-90 430.963 428.067)" fill="#F5F5F5"/>
<circle cx="110.067" cy="511.5" r="24.0672" transform="rotate(-90 110.067 511.5)" fill="#F5F5F5"/>
<circle cx="190.291" cy="511.5" r="24.0672" transform="rotate(-90 190.291 511.5)" fill="#F5F5F5"/>
<circle cx="270.515" cy="511.5" r="24.0672" transform="rotate(-90 270.515 511.5)" fill="#F5F5F5"/>
<circle cx="270.515" cy="594.933" r="24.0672" transform="rotate(-90 270.515 594.933)" fill="#F5F5F5"/>
<circle cx="350.739" cy="594.933" r="24.0672" transform="rotate(-90 350.739 594.933)" fill="#F5F5F5"/>
<circle cx="430.963" cy="594.933" r="24.0672" transform="rotate(-90 430.963 594.933)" fill="#F5F5F5"/>
<circle cx="591.41" cy="594.933" r="24.0672" transform="rotate(-90 591.41 594.933)" fill="#F5F5F5"/>
<circle cx="671.634" cy="594.933" r="24.0672" transform="rotate(-90 671.634 594.933)" fill="#F5F5F5"/>
<circle cx="751.858" cy="594.933" r="24.0672" transform="rotate(-90 751.858 594.933)" fill="#F5F5F5"/>
<circle cx="753.463" cy="511.5" r="24.0672" transform="rotate(-90 753.463 511.5)" fill="#F5F5F5"/>
<circle cx="833.687" cy="511.5" r="24.0672" transform="rotate(-90 833.687 511.5)" fill="#F5F5F5"/>
<circle cx="913.91" cy="511.5" r="24.0672" transform="rotate(-90 913.91 511.5)" fill="#F5F5F5"/>
</svg>
